PathFileType	4	(X/Y/Z)	/Users/niels/Desktop/University/Third Semester/Perception and Action/Exam/Gymnastics Motion Tracking/Code for Gym Tracking/Analyzed Data/Webcam_Backflip/id7_5_trajectory_Sports2D/id7_5_trajectory_Sports2D_px_person00.trc
DataRate	CameraRate	NumFrames	NumMarkers	Units	OrigDataRate	OrigDataStartFrame	OrigNumFrames
29.81132075471698	29.81132075471698	12	22	m	29.81132075471698	79	159
Frame#	Time	Hip			RHip			RKnee			RAnkle			RBigToe			RSmallToe			RHeel			LHip			LKnee			LAnkle			LBigToe			LSmallToe			LHeel			Neck			Head			Nose			RShoulder			RElbow			RWrist			LShoulder			LElbow			LWrist		
		X1	Y1	Z1	X2	Y2	Z2	X3	Y3	Z3	X4	Y4	Z4	X5	Y5	Z5	X6	Y6	Z6	X7	Y7	Z7	X8	Y8	Z8	X9	Y9	Z9	X10	Y10	Z10	X11	Y11	Z11	X12	Y12	Z12	X13	Y13	Z13	X14	Y14	Z14	X15	Y15	Z15	X16	Y16	Z16	X17	Y17	Z17	X18	Y18	Z18	X19	Y19	Z19	X20	Y20	Z20	X21	Y21	Z21	X22	Y22	Z22
79	2.65	1.0399203055517745	-0.5653307395568092	0.0	1.0143559058146088	-0.5645117317438878	0.0	1.0278455296774283	-0.6710489836140041	0.0	0.9771928431498744	-0.7643693108030543	0.0	0.9948689634905207	-0.8001034772444067	0.0	0.9788844174938026	-0.7959964063625958	0.0	0.9669483059253424	-0.7751260072981289	0.0	1.0627696586348754	-0.5675132050792789	0.0	1.0641950071753294	-0.6788541469684549	0.0	1.02593258263832	-0.7647760521219964	0.0	1.0487519699048826	-0.7956380212785212	0.0	1.0529051260299518	-0.7906653518311477	0.0	1.0150029099413638	-0.7752936217133114	0.0	1.0571667336020123	-0.4109938637555846	0.0	1.0606277567291624	-0.34238365030459267	0.0	1.064210053478771	-0.3796678853798045	0.0	1.016889818071174	-0.43497384981874104	0.0	0.984510120492364	-0.5010997243189151	0.0	0.9363579391912551	-0.5555435180497542	0.0	1.0936107030731212	-0.43373217243077083	0.0	1.10226333815704	-0.508857783301439	0.0	1.1343083759035686	-0.5710977427710022	0.0
80	2.6835443037974684	1.04386019061158	-0.5395254646585532	0.0	1.0176263954985685	-0.5382316128764214	0.0	1.0293492656813343	-0.6457315207722687	0.0	0.9796518837482926	-0.7406306753581581	0.0	0.996487448120931	-0.7791477900507976	0.0	0.9796377010391434	-0.7753643513655929	0.0	0.9700428479191778	-0.7512925060305295	0.0	1.0674112558608682	-0.5412106619860252	0.0	1.0703339824410274	-0.6550132478031951	0.0	1.032539928119448	-0.7396083243076902	0.0	1.054382180462387	-0.7724273351217092	0.0	1.059177922109574	-0.7672313664704714	0.0	1.0211734690699414	-0.7499479300065239	0.0	1.0601612241838645	-0.3840486786941795	0.0	1.0631920461481512	-0.3147207725509189	0.0	1.0666654443562007	-0.3524100658642748	0.0	1.0193913115277335	-0.40751516947292277	0.0	0.9889718316989451	-0.47625378293493564	0.0	0.9430594380662705	-0.5346937843786274	0.0	1.0976496665175393	-0.4072018336889601	0.0	1.1079817605024453	-0.4825467277462463	0.0	1.1422281914344365	-0.542721613745384	0.0
81	2.7170886075949365	1.0479330986699653	-0.5157327344707053	0.0	1.0210027901635146	-0.5140725892743485	0.0	1.031093952898901	-0.6226584321011284	0.0	0.9827442157471076	-0.7198037147653756	0.0	0.9986328242116537	-0.7602978279800128	0.0	0.981265661662553	-0.75662244806693	0.0	0.9737566359463367	-0.7298655452175342	0.0	1.0721893337732422	-0.5170199996156042	0.0	1.0764505552153918	-0.6331556780799861	0.0	1.041194234018139	-0.7185822276112748	0.0	1.0620642698752225	-0.7524618120971835	0.0	1.0673807411557068	-0.7471491810236611	0.0	1.0295757769728167	-0.7285107397532649	0.0	1.0633096045836548	-0.3593355791267194	0.0	1.0660615135026554	-0.28919270191883817	0.0	1.0695438479071313	-0.32745210885927295	0.0	1.021780074283584	-0.3821457613441872	0.0	0.9914391473218943	-0.4520047069270498	0.0	0.9461448381093934	-0.5119645118920776	0.0	1.1017811647452231	-0.38271194019608384	0.0	1.1140665189226484	-0.45797791374875296	0.0	1.1506627607863054	-0.5162244441645372	0.0
82	2.750632911392405	1.0520014913671414	-0.4949543325721171	0.0	1.024353246343809	-0.4930432378578386	0.0	1.033052386632071	-0.602802028523533	0.0	0.9865031829057499	-0.7029161489516452	0.0	1.0015336650320301	-0.744386170530762	0.0	0.983916301707501	-0.7407417179362096	0.0	0.9780622294892202	-0.7123403956130345	0.0	1.0769042403550928	-0.49595287033089935	0.0	1.0820937861904842	-0.6140919207279816	0.0	1.0516985732337236	-0.7024829738535133	0.0	1.071648279525254	-0.736459438673791	0.0	1.077613683718632	-0.7311917752445096	0.0	1.0401665948434584	-0.7121794141173755	0.0	1.0665802985561244	-0.3378918010692804	0.0	1.0692681715721466	-0.2667962242968005	0.0	1.0728639313446655	-0.30584012816428396	0.0	1.024085895819914	-0.3599656489386139	0.0	0.9922154416655723	-0.42960447887315595	0.0	0.945938096468303	-0.489267875110899	0.0	1.1059940664888	-0.3612809755037408	0.0	1.1202444985419946	-0.43624256588282495	0.0	1.1592420217929411	-0.49307321859460984	0.0
83	2.784177215189873	1.0559452260572995	-0.47766113143971917	0.0	1.0276201872330175	-0.47562873514666276	0.0	1.0352328744153223	-0.5866660032759792	0.0	0.9910550071299971	-0.6904906190721077	0.0	1.005615176544017	-0.7320733096497036	0.0	0.9878292951398785	-0.7285178646011495	0.0	0.9830754457922427	-0.6996123290263023	0.0	1.081381178142812	-0.47851074528737253	0.0	1.087106985763227	-0.5982472630134914	0.0	1.0635052299801755	-0.6912614924567394	0.0	1.0826220917889535	-0.7247119161539306	0.0	1.0894722041696832	-0.7196287194910442	0.0	1.052404381639225	-0.701197088247554	0.0	1.0699458836636524	-0.3202538457412936	0.0	1.0728247267130584	-0.2480554971745224	0.0	1.0765682976005144	-0.2880843153388503	0.0	1.0264288181717036	-0.3414913538600942	0.0	0.9918746362984536	-0.40982205635543106	0.0	0.9433964437079697	-0.468055091595644	0.0	1.1102710022508513	-0.3434313902620289	0.0	1.1262779299675036	-0.4178631746148328	0.0	1.167506813336913	-0.4739302247769663	0.0
84	2.8177215189873417	1.0596859726011294	-0.46401183426580234	0.0	1.0308174734738316	-0.46203007168637295	0.0	1.037654201657778	-0.5745356204814649	0.0	0.9965920894598008	-0.6826945574073033	0.0	1.0112814463001856	-0.723817668496911	0.0	0.9932150836872482	-0.7204653127350552	0.0	0.9890429902612137	-0.6919618480297	0.0	1.085509515594046	-0.4648852743419673	0.0	1.091600946617643	-0.5858397352745385	0.0	1.0759300197924568	-0.6844700748280333	0.0	1.0943019424855398	-0.7172709222873486	0.0	1.1021669321860723	-0.7124111599143308	0.0	1.0654842183942401	-0.6951269222670121	0.0	1.0733955151036036	-0.3066210586442015	0.0	1.076719145102087	-0.2332661649857764	0.0	1.0805148961251916	-0.274379803488562	0.0	1.0289632272771503	-0.3268608703942211	0.0	0.9910824495486656	-0.3930916212366521	0.0	0.9397766498668508	-0.4493281963104669	0.0	1.1145673028753915	-0.329367116299208	0.0	1.1320147126807352	-0.403087933477975	0.0	1.1750248460388257	-0.45900934942105465	0.0
85	2.85126582278481	1.0632032035710928	-0.4540933903781522	0.0	1.0339878139496224	-0.45236451856126564	0.0	1.0403380211801552	-0.5666475292446785	0.0	1.0033047873513443	-0.6794366758392055	0.0	1.018684044605193	-0.7196491296690583	0.0	1.0001706864748192	-0.7166334050650048	0.0	0.9962211423333422	-0.6892172463110513	0.0	1.0892787572722262	-0.4551363325278009	0.0	1.095834990189698	-0.5770126816258675	0.0	1.088359481131654	-0.6815535094945638	0.0	1.1059857669174156	-0.713888294779362	0.0	1.11482771124737	-0.7092185461575178	0.0	1.0786480803861571	-0.6932290807662955	0.0	1.0769225705179732	-0.2970011924250459	0.0	1.08091074370994	-0.2225899174186862	0.0	1.0845379316311927	-0.2647333639836941	0.0	1.0317911074491426	-0.3160411223365387	0.0	0.9904714082061286	-0.3797297855926084	0.0	0.9362947098906198	-0.4337679304229186	0.0	1.1188385523012105	-0.3191392665956821	0.0	1.137395983950832	-0.39208787719795013	0.0	1.1814903319906875	-0.44834799235228334	0.0
86	2.8848101265822783	1.0665349984266652	-0.44806319838670744	0.0	1.0371557970405434	-0.4467564555753764	0.0	1.0432932882135217	-0.5631676945770357	0.0	1.0113093472834451	-0.6804483644213155	0.0	1.0277030312128712	-0.7192412294650441	0.0	1.0087072941740607	-0.7167030155035913	0.0	1.0047757755527524	-0.6909797777828116	0.0	1.092770090930438	-0.4493356883584051	0.0	1.1000634622844299	-0.5719135040552318	0.0	1.1003165938500437	-0.6820658539458734	0.0	1.1170608388165086	-0.7141313330091374	0.0	1.1268015108418432	-0.7096350252347134	0.0	1.0913539488711577	-0.6948552333945169	0.0	1.080538836701482	-0.2913248529322059	0.0	1.085346994895562	-0.21606413346266837	0.0	1.088564508653276	-0.25903290490776804	0.0	1.0349174205623093	-0.3090106161830963	0.0	0.9905491343252119	-0.37007884403260344	0.0	0.9339187586938051	-0.4219375218883593	0.0	1.1230564255647906	-0.31277968371672027	0.0	1.1424010730317928	-0.38502315077053295	0.0	1.1867409333754901	-0.4419360436510959	0.0
87	2.918354430379747	1.0697597735099973	-0.44615771637382273	0.0	1.0403081900043216	-0.4453552247428279	0.0	1.046527684159914	-0.5641254218998695	0.0	1.0205751917063237	-0.6853672799985128	0.0	1.0380409455541013	-0.7222680525812252	0.0	1.0187262069520853	-0.7203121277386331	0.0	1.0147152045156882	-0.696756310065895	0.0	1.096092453920238	-0.44764601313806696	0.0	1.104443905383268	-0.5706898086804338	0.0	1.1114401830083236	-0.6858222591125108	0.0	1.1271131117789541	-0.7176508309519347	0.0	1.1377718359698603	-0.7133530196716462	0.0	1.1032524738577538	-0.699660202608683	0.0	1.084287322396858	-0.28954331670634303	0.0	1.0899817609761764	-0.21364179916366946	0.0	1.0926533605295823	-0.2571552843243353	0.0	1.0382889614370674	-0.3058732225141159	0.0	0.9916526144740831	-0.3645301175503595	0.0	0.9332932024042541	-0.41439705396182186	0.0	1.127222094670156	-0.3103656533073525	0.0	1.1469932938350704	-0.3820343382050906	0.0	1.190709003423272	-0.43977003802953785	0.0
88	2.951898734177215	1.0729768460728668	-0.448651869693817	0.0	1.0434241201682728	-0.4483528676961529	0.0	1.0501095131054394	-0.5694334499439226	0.0	1.0308692532175565	-0.6937848098499041	0.0	1.0492449441135248	-0.7286319708090069	0.0	1.0298875928863027	-0.7272702464269664	0.0	1.0258108332375317	-0.7059988553271985	0.0	1.0993505145645788	-0.45032142349645793	0.0	1.1090304190194453	-0.5735120149099409	0.0	1.1214506870658274	-0.6928760206482149	0.0	1.135959923071021	-0.724341237648024	0.0	1.1476435296629377	-0.7202537058515127	0.0	1.1140738682207556	-0.7075687796393455	0.0	1.0881858657205603	-0.2916993498217827	0.0	1.0947561670214119	-0.21525653568113706	0.0	1.0968807820399897	-0.2590905219580782	0.0	1.0418301855076275	-0.30686341320582156	0.0	0.9939613653297574	-0.36351121397097913	0.0	0.9347317596728136	-0.4116935642104798	0.0	1.131368284063814	-0.3120446390463892	0.0	1.1511166641015684	-0.383244291141484	0.0	1.1933949323353283	-0.44188865525964616	0.0
89	2.9854430379746835	1.0762771919653717	-0.45581292185613054	0.0	1.0465206137407495	-0.455983588793871	0.0	1.054185596152907	-0.5789746036548374	0.0	1.041750720914716	-0.7053480460214006	0.0	1.060714934889309	-0.7383909642549176	0.0	1.0415526275965674	-0.7375159655383695	0.0	1.0375714879848361	-0.7182195420402555	0.0	1.1026700535687428	-0.457646510822668	0.0	1.1137794188688428	-0.580668480044983	0.0	1.130148676786932	-0.7033981549509359	0.0	1.1435083385678133	-0.7343399531470615	0.0	1.1563091350263566	-0.730419762121989	0.0	1.1236021623144459	-0.7186568031959645	0.0	1.0921609611827043	-0.29793056342256585	0.0	1.0995215839663308	-0.220888305831218	0.0	1.1011697240464808	-0.2649745526936807	0.0	1.0454323438700486	-0.3122746580309346	0.0	0.9975143356217517	-0.3674638074652293	0.0	0.9382645419324738	-0.4143214322118183	0.0	1.135503573915233	-0.3180166453035904	0.0	1.1547228450872904	-0.3887872370910692	0.0	1.1948839876089594	-0.4483618747160786	0.0
90	3.0189873417721516	1.0797188848324164	-0.46780096214320765	0.0	1.0496744643583156	-0.4684117266435672	0.0	1.0588839038415865	-0.5926821577376111	0.0	1.0526448879967603	-0.7199222986859254	0.0	1.0717365691594396	-0.7515262192376486	0.0	1.0528679751585417	-0.7509364857878712	0.0	1.049357648340171	-0.7331898532418154	0.0	1.1061907664079422	-0.46980635102220175	0.0	1.1185823670710664	-0.5925345650389611	0.0	1.1374333835017927	-0.7175860417447606	0.0	1.1495289429553808	-0.7478524408683155	0.0	1.1634878550731957	-0.7440327097025717	0.0	1.1317249274830026	-0.7330732611868951	0.0	1.0960561248298504	-0.308385008511143	0.0	1.1039850989101279	-0.2306023629912266	0.0	1.1052369266181636	-0.2750047237591315	0.0	1.0489646495435485	-0.3223533290768984	0.0	1.0022117217714746	-0.37677183877667186	0.0	0.9437280594464278	-0.4227149011753484	0.0	1.139552907008447	-0.32843452114371474	0.0	1.1578111939931233	-0.39881375100201943	0.0	1.1954056580435535	-0.4592836386648419	0.0
